<svg id="Ebene_1" data-name="Ebene 1" xmlns="http://www.w3.org/2000/svg" viewBox="0 0 237.58 73.71"><defs><style>.cls-1{fill:#fff;}</style></defs><title>ZLI_ottzin_Logo_Schriftzug_White_zugeschnitten</title><path class="cls-1" d="M26.16,34c3.1,0,4.76,1.66,4.76,4.15s-1.66,4.15-4.76,4.15H6.31c-4.82,0-6.31-2-6.31-4.92,0-1.55.61-2.49,1.66-3.93L18.58,10.92H5.37c-3.1,0-4.76-1.65-4.76-4S2.27,3,5.37,3H24.61c4.76,0,5.48,2.93,5.48,4.48,0,1.88-1.66,4.15-4.21,7.52L11.56,34Z"/><path class="cls-1" d="M34.29,7.38c0-3.15,1.88-4.76,4.48-4.76s4.48,1.61,4.48,4.76V34h9.62c2.82,0,4.48,1.55,4.48,4.14s-1.66,4.15-4.48,4.15H38.77a4.32,4.32,0,0,1-4.48-4.48Z"/><path class="cls-1" d="M70,7.09a4.47,4.47,0,0,0-8.94,0h0V36.87a4.76,4.76,0,0,1,1-2.85,4.38,4.38,0,0,1,3.46-1.62,4.25,4.25,0,0,1,3.18,1.32A4.53,4.53,0,0,1,70,36.87V7.09Z"/><path class="cls-1" d="M61.07,66.65a4.47,4.47,0,1,0,8.94,0h0V36.88a4.65,4.65,0,0,1-1,2.84,4.35,4.35,0,0,1-3.45,1.62A4.26,4.26,0,0,1,62.35,40a4.51,4.51,0,0,1-1.28-3.14V66.65Z"/><path class="cls-1" d="M92.69,32.56c5.42,0,11.89,1.55,11.89,6.25a4.08,4.08,0,0,1-3.87,4.26c-2.1,0-4.32-1.88-7.8-1.88-7.24,0-10.12,5.86-10.12,11.94,0,6.25,3.21,11.62,9.35,11.62,5.58,0,6.47-1.83,8.79-1.83,3.54,0,4,3,4,4.15,0,4.92-7.46,6.64-12.39,6.64-12.39,0-19.35-9.29-19.35-20.58C73.17,41.19,80.85,32.56,92.69,32.56Z"/><path class="cls-1" d="M116.69,41.74h-5c-3,0-4.65-1.66-4.65-4.15s1.66-4.15,4.65-4.15h19c3,0,4.64,1.55,4.64,4.15s-1.66,4.15-4.64,4.15h-5V68.4c0,3.15-1.88,4.76-4.48,4.76s-4.48-1.61-4.48-4.76Z"/><path class="cls-1" d="M83.33,11.65a1,1,0,0,1,1.08,1,1.06,1.06,0,0,1-1.08,1h-5.9c-.79,0-1.26-.45-1.26-1.08a1.52,1.52,0,0,1,.3-.87L81.3,4.93H77.36a.94.94,0,0,1-1-1,1,1,0,0,1,1-1h5.49A1.12,1.12,0,0,1,84.11,4a1.71,1.71,0,0,1-.33,1L79,11.65Z"/><path class="cls-1" d="M85.41,4a1.13,1.13,0,1,1,2.25,0V9.27A2.3,2.3,0,0,0,90,11.74a2.35,2.35,0,0,0,2.3-2.47V4a1.13,1.13,0,1,1,2.25,0V9.39a4.56,4.56,0,0,1-9.11,0Zm2.91-4a1.08,1.08,0,1,1-1.08,1.08A1.08,1.08,0,0,1,88.32,0Zm3.3,0a1.08,1.08,0,1,1-1.08,1.08A1.08,1.08,0,0,1,91.62,0Z"/><path class="cls-1" d="M96.36,4.12A1.06,1.06,0,0,1,97.51,3h2.64c2.31,0,3.74,1,3.74,3.39a2.92,2.92,0,0,1-2.78,2.84l2.55,2.73a1,1,0,0,1,.3.66,1.13,1.13,0,0,1-2,.76l-3.33-4h0v3.25a1.13,1.13,0,1,1-2.25,0Zm2.25,3.56h1.54a1.28,1.28,0,0,0,1.4-1.34A1.26,1.26,0,0,0,100.15,5H98.61Z"/><path class="cls-1" d="M109.89,2.77c1.1,0,3.23.36,3.23,1.68a1,1,0,0,1-.93,1c-.62,0-1-.53-2.3-.53-1.86,0-2.82,1.58-2.82,3.41s1,3.31,2.82,3.31c1.26,0,1.77-.63,2.39-.63a1.06,1.06,0,0,1,1,1c0,1.44-2.27,1.77-3.38,1.77a5.19,5.19,0,0,1-5.16-5.52C104.73,5.17,106.83,2.77,109.89,2.77Z"/><path class="cls-1" d="M114.62,4a1.13,1.13,0,1,1,2.25,0V7.21h4.7V4a1.13,1.13,0,1,1,2.25,0v8.52a1.13,1.13,0,1,1-2.25,0V9.28h-4.7v3.27a1.13,1.13,0,1,1-2.25,0Z"/><path class="cls-1" d="M125.75,4.26c0-.75.37-1.31,1.17-1.31h3.72a1,1,0,0,1,1.07,1,1,1,0,0,1-1.07,1H128V7.21h2.46a1,1,0,0,1,1.09,1,1,1,0,0,1-1.09,1H128v2.28h2.78a1,1,0,0,1,1.06,1,1,1,0,0,1-1.06,1h-3.87a1.1,1.1,0,0,1-1.16-1.12Z"/><path class="cls-1" d="M133.21,4.12A1.07,1.07,0,0,1,134.37,3H137c2.31,0,3.73,1,3.73,3.39A2.91,2.91,0,0,1,138,9.18l2.55,2.73a1,1,0,0,1,.3.66,1.14,1.14,0,0,1-2,.76l-3.33-4h0v3.25a1.13,1.13,0,1,1-2.25,0Zm2.25,3.56H137a1.28,1.28,0,0,0,1.39-1.34A1.26,1.26,0,0,0,137,5h-1.55Z"/><path class="cls-1" d="M76.52,17.83a1.13,1.13,0,1,1,2.25,0v7.53h2.67a1,1,0,0,1,1.08,1.08,1,1,0,0,1-1.08,1H77.69a1.11,1.11,0,0,1-1.17-1.23Z"/><path class="cls-1" d="M83.41,18.06c0-.75.38-1.31,1.17-1.31H88.3a1,1,0,1,1,0,2.07H85.66V21h2.46a1,1,0,0,1,1.1,1,1,1,0,0,1-1.1,1H85.66v2.28h2.78a1,1,0,0,1,1.06,1,1,1,0,0,1-1.06,1H84.57a1.1,1.1,0,0,1-1.16-1.12Z"/><path class="cls-1" d="M90.91,17.83a1.13,1.13,0,1,1,2.25,0V21h4.71V17.83a1.13,1.13,0,1,1,2.25,0v8.52a1.13,1.13,0,1,1-2.25,0V23.08H93.16v3.27a1.13,1.13,0,1,1-2.25,0Z"/><path class="cls-1" d="M102,17.92a1.07,1.07,0,0,1,1.16-1.17h2.64c2.31,0,3.73,1,3.73,3.39A2.91,2.91,0,0,1,106.8,23l2.55,2.73a1,1,0,0,1,.3.66,1.14,1.14,0,0,1-2,.76l-3.33-4h0v3.25a1.13,1.13,0,1,1-2.25,0Zm2.25,3.56h1.55a1.28,1.28,0,0,0,1.39-1.34,1.26,1.26,0,0,0-1.39-1.32h-1.55Z"/><path class="cls-1" d="M111,17.88a1.09,1.09,0,0,1,1.19-1.13h2.88a2.65,2.65,0,0,1,2.82,2.64,2.23,2.23,0,0,1-1.4,2.21v0a2.6,2.6,0,0,1,2.28,2.55c0,2.11-1.41,3.25-3.48,3.25h-3.09a1.11,1.11,0,0,1-1.2-1.14Zm2.25,3.1h1.17a1.11,1.11,0,0,0,1.22-1.18,1.09,1.09,0,0,0-1.22-1.07h-1.17Zm0,4.47H115a1.27,1.27,0,0,0,1.41-1.3c0-.71-.54-1.19-1.59-1.19h-1.59Z"/><path class="cls-1" d="M120.1,18.06c0-.75.37-1.31,1.17-1.31H125a1,1,0,0,1,1.06,1,1,1,0,0,1-1.06,1h-2.64V21h2.46a1,1,0,1,1,0,2.07h-2.46v2.28h2.77a1,1,0,1,1,0,2.07h-3.87a1.09,1.09,0,0,1-1.15-1.12Z"/><path class="cls-1" d="M129.48,18.82h-1.63a1,1,0,0,1-1-1,1,1,0,0,1,1-1h5.52a1,1,0,0,1,1,1,1,1,0,0,1-1,1h-1.64v7.53a1.13,1.13,0,1,1-2.25,0Z"/><path class="cls-1" d="M135.34,17.92a1.06,1.06,0,0,1,1.15-1.17h2.64c2.31,0,3.74,1,3.74,3.39A2.92,2.92,0,0,1,140.09,23l2.55,2.73a1,1,0,0,1,.3.66,1.13,1.13,0,0,1-2,.76l-3.33-4h0v3.25a1.13,1.13,0,1,1-2.25,0Zm2.25,3.56h1.54a1.28,1.28,0,0,0,1.4-1.34,1.26,1.26,0,0,0-1.4-1.32h-1.54Z"/><path class="cls-1" d="M144.32,17.83a1.13,1.13,0,1,1,2.25,0v8.52a1.13,1.13,0,1,1-2.25,0Z"/><path class="cls-1" d="M148.47,18.06c0-.75.37-1.31,1.17-1.31h3.72a1,1,0,0,1,1.06,1,1,1,0,0,1-1.06,1h-2.64V21h2.46a1,1,0,1,1,0,2.07h-2.46v2.28h2.77a1,1,0,1,1,0,2.07h-3.87a1.09,1.09,0,0,1-1.15-1.12Z"/><path class="cls-1" d="M155.93,17.88a1.09,1.09,0,0,1,1.19-1.13H160a2.65,2.65,0,0,1,2.82,2.64,2.23,2.23,0,0,1-1.4,2.21v0a2.6,2.6,0,0,1,2.28,2.55c0,2.11-1.41,3.25-3.48,3.25h-3.09a1.11,1.11,0,0,1-1.2-1.14Zm2.25,3.1h1.17a1.11,1.11,0,0,0,1.22-1.18,1.09,1.09,0,0,0-1.22-1.07h-1.17Zm0,4.47H160a1.27,1.27,0,0,0,1.41-1.3c0-.71-.54-1.19-1.59-1.19h-1.59Z"/><path class="cls-1" d="M171.25,18.07a1,1,0,0,1-1,1.11c-.61,0-1.09-.45-2-.45-.65,0-1.23.35-1.23,1,0,1.54,5,.55,5,4.42a3.56,3.56,0,0,1-3.84,3.48c-1.16,0-3.65-.27-3.65-1.68a1,1,0,0,1,1-1.06c.7,0,1.54.58,2.52.58s1.53-.55,1.53-1.29c0-1.77-5-.7-5-4.18a3.47,3.47,0,0,1,3.72-3.41C169.15,16.57,171.25,16.89,171.25,18.07Z"/><path class="cls-1" d="M172.56,18.3a1.54,1.54,0,0,1-.1-.56,1.12,1.12,0,0,1,2.17-.34L177,23.64l2.32-6.24a1.12,1.12,0,0,1,2.18.34,1.36,1.36,0,0,1-.11.56l-3.28,8.35c-.2.48-.45.87-1.11.87a1.12,1.12,0,0,1-1.11-.87Z"/><path class="cls-1" d="M182.47,18.06c0-.75.38-1.31,1.17-1.31h3.72a1,1,0,1,1,0,2.07h-2.64V21h2.46a1,1,0,0,1,1.1,1,1,1,0,0,1-1.1,1h-2.46v2.28h2.78a1,1,0,0,1,1.06,1,1,1,0,0,1-1.06,1h-3.87a1.1,1.1,0,0,1-1.16-1.12Z"/><path class="cls-1" d="M189.94,17.92a1.06,1.06,0,0,1,1.15-1.17h2.64c2.31,0,3.74,1,3.74,3.39A2.92,2.92,0,0,1,194.69,23l2.55,2.73a1,1,0,0,1,.3.66,1.13,1.13,0,0,1-2,.76l-3.33-4h0v3.25a1.13,1.13,0,1,1-2.25,0Zm2.25,3.56h1.54a1.28,1.28,0,0,0,1.4-1.34,1.26,1.26,0,0,0-1.4-1.32h-1.54Z"/><path class="cls-1" d="M198.88,17.88a1.09,1.09,0,0,1,1.19-1.13H203a2.65,2.65,0,0,1,2.82,2.64,2.23,2.23,0,0,1-1.4,2.21v0a2.6,2.6,0,0,1,2.28,2.55c0,2.11-1.41,3.25-3.48,3.25h-3.09a1.11,1.11,0,0,1-1.2-1.14Zm2.25,3.1h1.17a1.11,1.11,0,0,0,1.22-1.18,1.09,1.09,0,0,0-1.22-1.07h-1.17Zm0,4.47h1.77a1.27,1.27,0,0,0,1.41-1.3c0-.71-.54-1.19-1.59-1.19h-1.59Z"/><path class="cls-1" d="M210.38,17.82A1.78,1.78,0,0,1,212,16.57a1.7,1.7,0,0,1,1.6,1.25L216.53,26a1.75,1.75,0,0,1,.12.55,1,1,0,0,1-1,1,1.06,1.06,0,0,1-1.1-.78l-.45-1.41H209.9l-.45,1.4a1,1,0,0,1-1.08.79,1.08,1.08,0,0,1-1.11-1.05,1.21,1.21,0,0,1,.11-.49Zm.17,5.44h2.85L212,18.91h0Z"/><path class="cls-1" d="M217.67,17.83a1.07,1.07,0,0,1,1.12-1.17,1.42,1.42,0,0,1,1,.5l4.75,6.34h0V17.83a1.13,1.13,0,1,1,2.25,0v8.52a1.07,1.07,0,0,1-1.12,1.17,1.43,1.43,0,0,1-1-.49L220,20.76h0v5.59a1.13,1.13,0,1,1-2.25,0Z"/><path class="cls-1" d="M228.66,17.91a1.11,1.11,0,0,1,1.15-1.16h2.49c3.36,0,5.28,2.16,5.28,5.49a4.85,4.85,0,0,1-5.13,5.19h-2.61a1.1,1.1,0,0,1-1.18-1.12Zm2.25,7.45h1.51c1.94,0,2.82-1.42,2.82-3.22s-.9-3.32-3-3.32h-1.36Z"/></svg>